<?xml version="1.0" encoding="utf-8"?>
<!-- Generator: Adobe Illustrator 25.4.1, SVG Export Plug-In . SVG Version: 6.00 Build 0)  -->
<svg version="1.1" id="Layer_1" xmlns="http://www.w3.org/2000/svg" xmlns:xlink="http://www.w3.org/1999/xlink" x="0px" y="0px"
	 viewBox="0 0 810.1 595.3" style="enable-background:new 0 0 810.1 595.3;" xml:space="preserve">
<style type="text/css">
	.st0{fill:#FFB6B6;}
	.st1{fill:#2F2E41;}
	.st2{fill:#FFFFFF;}
	.st3{fill:#3F3D56;}
	.st4{fill:#6C63FF;}
	.st5{fill:#CACACA;}
	.st6{fill:#E6E6E6;}
	.st7{opacity:0.2;enable-background:new    ;}
</style>
<polygon class="st0" points="379,471.2 391.8,465.5 375.7,412.2 356.8,420.7 "/>
<path class="st1" d="M369.8,456.8l19.1-13.5l5.3,8.5l27,1.3c3.5,0.2,6.1,3.1,5.9,6.6c-0.1,2.1-1.2,3.9-3,5l-23.7,14.7l-9.3-5.9
	l3.6,9.4l-8.9,5.5L369.8,456.8z"/>
<path class="st2" d="M707.7,370.4c0-5.4-1.8-9.7-4-9.7H101.2c-2.2,0-4,4.4-4,9.7V591c0,1-0.8,1.9-1.8,2c-1.6,0.2-3.2,0.3-4.9,0.4
	c0,0-0.1,0-0.1,0c-0.9,0.1-1.8,0.1-2.6,0.2h0c-0.5-0.8-0.9-1.7-1.3-2.5c-0.1-0.3-0.2-0.6-0.2-0.9V357.8c0-1.5,0.1-3,0.2-4.4
	c0.1-2,0.4-4,0.8-6c1.7-9.3,5.5-15.6,9.9-15.6h611c0.6,0,1.3,0.1,1.8,0.4c0.9,0.4,1.6,0.9,2.3,1.6c0.9,0.9,1.6,1.9,2.2,3
	c2.1,3.8,3.7,9.4,4.2,15.9c0,0.1,0,0.1,0,0.2c0.1,1.6,0.2,3.3,0.2,4.9l0.1,21.4L719,392l0.3,40.1l0.1,14.2l0.4,146.2l0,0
	c0,1.1-0.9,2-2,2h-8c-1.1,0-2-0.9-2-2L707.7,370.4z"/>
<path class="st1" d="M544,231.4h-64.9c-1.9,0-3.5,1.6-3.5,3.5v102.6h71.8V234.9C547.5,233,545.9,231.4,544,231.4
	C544,231.4,544,231.4,544,231.4z M511.8,289.7c-4.2,0-7.6-3.4-7.7-7.7v-11.8c0-4.2,3.4-7.7,7.7-7.7s7.7,3.4,7.7,7.7V282
	C519.4,286.2,516,289.7,511.8,289.7L511.8,289.7z"/>
<path class="st3" d="M475.4,334.2v9.9c0,1.1,0.9,1.9,1.9,1.9h68.4c1.1,0,1.9-0.9,1.9-1.9v-9.9H475.4z"/>
<path class="st0" d="M392,88.6c-2.8,7.1-10.9,10.6-18,7.8c-0.8-0.3-1.5-0.7-2.2-1.1l-91.6,63.8l-2.5-25.4l90.1-58.4
	c4.5-6.3,13.2-7.7,19.4-3.2C392.4,75.8,394.4,82.6,392,88.6L392,88.6z"/>
<path class="st4" d="M186.8,128.9c0,0-9.9,14.7,5.6,27.6s78.7,10.4,88.9,10.3s56.9-48.5,56.9-48.5l-0.3-27.9l-56.4,33.5L186.8,128.9
	z"/>
<path class="st0" d="M181.2,226.2l1,19c0,0-3,16.8-0.5,20.5c2.4,3.6,68.6,9,68.6,9s-2.1-28.3,1.7-48.8L181.2,226.2z"/>
<path class="st1" d="M384.3,419.6l-25.5,22.3l-49.9-102.1c-49.5,8.5-96.2,11.2-136.6,0.9c-13.7-3.4-22-17.6-18.7-31.5
	c0.2-0.7,0.3-1.3,0.5-1.9c4.8-14.7,17.5-25.2,27.5-41.4l72.8,1.1l-8.1,28.1l70.7-9.2c14.2-1.8,27.2,8.5,29,23
	c0.1,0.8,0.2,1.5,0.2,2.3L384.3,419.6z"/>
<circle class="st0" cx="209.6" cy="68.8" r="29.6"/>
<path class="st4" d="M192.3,109l27.1,3.2c2.3,0.3,4.3,2,4.8,4.3l4.3,19.7l26.9,31.7c0,0,9.7,18.1,6,38.6
	c-2.2,12.3-5.9,24.4-11.2,35.7c0,0-66.1,27-68.5,23.4s-3.2-20.1-3.2-20.1L170,151c-1-10.1,2.6-20.1,9.8-27.3c2.1-2.1,4.3-3.6,6-3.6
	C189.6,120,189.1,111.2,192.3,109z"/>
<polygon class="st0" points="250.5,510.9 263.1,517 293.3,470.4 274.8,461.3 "/>
<path class="st1" d="M280.6,500.3l-25.8-9.8L290.2,384c-48.2-14.1-84.5-36.9-116.3-63.9c-10.8-9.1-18.8-20.8-9.7-31.9
	c0.4-0.5,0.9-1,1.3-1.5c10.8-11.1,38.3-9,54.4-19.2l36,38.4l-2.3,10.3l67.6,22.9c13.6,4.6,20.7,19.6,15.9,33.4
	c-0.3,0.7-0.5,1.5-0.9,2.2L280.6,500.3z"/>
<path class="st1" d="M250,503.4l21.6,9l-4.4,9l13.2,23.6c1.7,3,0.6,6.8-2.4,8.5c-1.8,1-4,1.1-5.8,0.2l-25-12.3l0.1-11l-6,8.1
	l-9.4-4.6L250,503.4z"/>
<path class="st0" d="M207.8,340.3c-6.4-4.2-8.2-12.8-4-19.2c0.4-0.7,0.9-1.3,1.5-1.9l-44.4-102.5l25.4,2.6l39.4,99.9
	c5.2,5.6,4.9,14.4-0.7,19.7C220.2,343.3,213.1,343.8,207.8,340.3L207.8,340.3z"/>
<path class="st4" d="M208.9,131.2c0,0-12.4-12.6-28.2,0.1s-25.8,75.1-27.7,85.1s36.2,65.4,36.2,65.4l27.4,5.2L195.1,225L208.9,131.2
	z"/>
<path class="st3" d="M651.5,71.4H374c-5,0-9,4-9,9v187.3c0,5,4,9,9,9h277.5c5,0,9-4,9-9V80.4C660.5,75.4,656.5,71.4,651.5,71.4z"/>
<path class="st2" d="M649.2,77.9H376.3c-2.7,0-4.8,2.2-4.8,4.8v182.6c0,2.7,2.2,4.8,4.8,4.8h272.9c2.7,0,4.8-2.2,4.8-4.8V82.7
	C654,80,651.8,77.9,649.2,77.9z"/>
<path class="st1" d="M596,349.4H433.7c-1.6,0-3-1.3-3-3c0-0.2,0-0.4,0.1-0.6l2.5-12c0.3-1.4,1.5-2.4,2.9-2.4h157.3
	c1.4,0,2.6,1,2.9,2.4l2.5,12c0.3,1.6-0.7,3.2-2.3,3.5C596.5,349.4,596.2,349.4,596,349.4L596,349.4z"/>
<path class="st3" d="M437.9,333.6h4c0.3,0,0.5,0.2,0.5,0.5v2c0,0.3-0.2,0.5-0.5,0.5h-4c-0.3,0-0.5-0.2-0.5-0.5v-2
	C437.4,333.9,437.6,333.6,437.9,333.6z"/>
<path class="st3" d="M447.9,333.6h4c0.3,0,0.5,0.2,0.5,0.5v2c0,0.3-0.2,0.5-0.5,0.5h-4c-0.3,0-0.5-0.2-0.5-0.5v-2
	C447.4,333.9,447.6,333.6,447.9,333.6z"/>
<path class="st3" d="M457.9,333.6h4c0.3,0,0.5,0.2,0.5,0.5v2c0,0.3-0.2,0.5-0.5,0.5h-4c-0.3,0-0.5-0.2-0.5-0.5v-2
	C457.4,333.9,457.6,333.6,457.9,333.6z"/>
<path class="st3" d="M467.9,333.6h4c0.3,0,0.5,0.2,0.5,0.5v2c0,0.3-0.2,0.5-0.5,0.5h-4c-0.3,0-0.5-0.2-0.5-0.5v-2
	C467.4,333.9,467.6,333.6,467.9,333.6z"/>
<path class="st3" d="M477.9,333.6h4c0.3,0,0.5,0.2,0.5,0.5v2c0,0.3-0.2,0.5-0.5,0.5h-4c-0.3,0-0.5-0.2-0.5-0.5v-2
	C477.4,333.9,477.6,333.6,477.9,333.6z"/>
<path class="st3" d="M487.9,333.6h4c0.3,0,0.5,0.2,0.5,0.5v2c0,0.3-0.2,0.5-0.5,0.5h-4c-0.3,0-0.5-0.2-0.5-0.5v-2
	C487.4,333.9,487.6,333.6,487.9,333.6z"/>
<path class="st3" d="M497.9,333.6h4c0.3,0,0.5,0.2,0.5,0.5v2c0,0.3-0.2,0.5-0.5,0.5h-4c-0.3,0-0.5-0.2-0.5-0.5v-2
	C497.4,333.9,497.6,333.6,497.9,333.6z"/>
<path class="st3" d="M507.9,333.6h4c0.3,0,0.5,0.2,0.5,0.5v2c0,0.3-0.2,0.5-0.5,0.5h-4c-0.3,0-0.5-0.2-0.5-0.5v-2
	C507.4,333.9,507.6,333.6,507.9,333.6z"/>
<path class="st3" d="M517.9,333.6h4c0.3,0,0.5,0.2,0.5,0.5v2c0,0.3-0.2,0.5-0.5,0.5h-4c-0.3,0-0.5-0.2-0.5-0.5v-2
	C517.4,333.9,517.6,333.6,517.9,333.6z"/>
<path class="st3" d="M527.9,333.6h4c0.3,0,0.5,0.2,0.5,0.5v2c0,0.3-0.2,0.5-0.5,0.5h-4c-0.3,0-0.5-0.2-0.5-0.5v-2
	C527.4,333.9,527.6,333.6,527.9,333.6z"/>
<path class="st3" d="M537.9,333.6h4c0.3,0,0.5,0.2,0.5,0.5v2c0,0.3-0.2,0.5-0.5,0.5h-4c-0.3,0-0.5-0.2-0.5-0.5v-2
	C537.4,333.9,537.6,333.6,537.9,333.6z"/>
<path class="st3" d="M547.9,333.6h4c0.3,0,0.5,0.2,0.5,0.5v2c0,0.3-0.2,0.5-0.5,0.5h-4c-0.3,0-0.5-0.2-0.5-0.5v-2
	C547.4,333.9,547.6,333.6,547.9,333.6z"/>
<path class="st3" d="M557.9,333.6h4c0.3,0,0.5,0.2,0.5,0.5v2c0,0.3-0.2,0.5-0.5,0.5h-4c-0.3,0-0.5-0.2-0.5-0.5v-2
	C557.4,333.9,557.6,333.6,557.9,333.6z"/>
<path class="st3" d="M567.9,333.6h4c0.3,0,0.5,0.2,0.5,0.5v2c0,0.3-0.2,0.5-0.5,0.5h-4c-0.3,0-0.5-0.2-0.5-0.5v-2
	C567.4,333.9,567.6,333.6,567.9,333.6z"/>
<path class="st3" d="M577.9,333.6h4c0.3,0,0.5,0.2,0.5,0.5v2c0,0.3-0.2,0.5-0.5,0.5h-4c-0.3,0-0.5-0.2-0.5-0.5v-2
	C577.4,333.9,577.6,333.6,577.9,333.6z"/>
<path class="st3" d="M587.9,333.6h4c0.3,0,0.5,0.2,0.5,0.5v2c0,0.3-0.2,0.5-0.5,0.5h-4c-0.3,0-0.5-0.2-0.5-0.5v-2
	C587.4,333.9,587.6,333.6,587.9,333.6z"/>
<path class="st3" d="M437.7,338.6h4c0.3,0,0.5,0.2,0.5,0.5v2c0,0.3-0.2,0.5-0.5,0.5h-4c-0.3,0-0.5-0.2-0.5-0.5v-2
	C437.3,338.9,437.5,338.6,437.7,338.6z"/>
<path class="st3" d="M447.7,338.6h4c0.3,0,0.5,0.2,0.5,0.5v2c0,0.3-0.2,0.5-0.5,0.5h-4c-0.3,0-0.5-0.2-0.5-0.5v-2
	C447.3,338.9,447.5,338.6,447.7,338.6z"/>
<path class="st3" d="M457.7,338.6h4c0.3,0,0.5,0.2,0.5,0.5v2c0,0.3-0.2,0.5-0.5,0.5h-4c-0.3,0-0.5-0.2-0.5-0.5v-2
	C457.3,338.9,457.5,338.6,457.7,338.6z"/>
<path class="st3" d="M467.7,338.6h4c0.3,0,0.5,0.2,0.5,0.5v2c0,0.3-0.2,0.5-0.5,0.5h-4c-0.3,0-0.5-0.2-0.5-0.5v-2
	C467.3,338.9,467.5,338.6,467.7,338.6z"/>
<path class="st3" d="M477.7,338.6h4c0.3,0,0.5,0.2,0.5,0.5v2c0,0.3-0.2,0.5-0.5,0.5h-4c-0.3,0-0.5-0.2-0.5-0.5v-2
	C477.3,338.9,477.5,338.6,477.7,338.6z"/>
<path class="st3" d="M487.7,338.6h4c0.3,0,0.5,0.2,0.5,0.5v2c0,0.3-0.2,0.5-0.5,0.5h-4c-0.3,0-0.5-0.2-0.5-0.5v-2
	C487.3,338.9,487.5,338.6,487.7,338.6z"/>
<path class="st3" d="M497.7,338.6h4c0.3,0,0.5,0.2,0.5,0.5v2c0,0.3-0.2,0.5-0.5,0.5h-4c-0.3,0-0.5-0.2-0.5-0.5v-2
	C497.3,338.9,497.5,338.6,497.7,338.6z"/>
<path class="st3" d="M507.7,338.6h4c0.3,0,0.5,0.2,0.5,0.5v2c0,0.3-0.2,0.5-0.5,0.5h-4c-0.3,0-0.5-0.2-0.5-0.5v-2
	C507.3,338.9,507.5,338.6,507.7,338.6z"/>
<path class="st3" d="M517.7,338.6h4c0.3,0,0.5,0.2,0.5,0.5v2c0,0.3-0.2,0.5-0.5,0.5h-4c-0.3,0-0.5-0.2-0.5-0.5v-2
	C517.3,338.9,517.5,338.6,517.7,338.6z"/>
<path class="st3" d="M527.7,338.6h4c0.3,0,0.5,0.2,0.5,0.5v2c0,0.3-0.2,0.5-0.5,0.5h-4c-0.3,0-0.5-0.2-0.5-0.5v-2
	C527.3,338.9,527.5,338.6,527.7,338.6z"/>
<path class="st3" d="M537.7,338.6h4c0.3,0,0.5,0.2,0.5,0.5v2c0,0.3-0.2,0.5-0.5,0.5h-4c-0.3,0-0.5-0.2-0.5-0.5v-2
	C537.3,338.9,537.5,338.6,537.7,338.6z"/>
<path class="st3" d="M547.7,338.6h4c0.3,0,0.5,0.2,0.5,0.5v2c0,0.3-0.2,0.5-0.5,0.5h-4c-0.3,0-0.5-0.2-0.5-0.5v-2
	C547.3,338.9,547.5,338.6,547.7,338.6z"/>
<path class="st3" d="M557.7,338.6h4c0.3,0,0.5,0.2,0.5,0.5v2c0,0.3-0.2,0.5-0.5,0.5h-4c-0.3,0-0.5-0.2-0.5-0.5v-2
	C557.3,338.9,557.5,338.6,557.7,338.6z"/>
<path class="st3" d="M567.7,338.6h4c0.3,0,0.5,0.2,0.5,0.5v2c0,0.3-0.2,0.5-0.5,0.5h-4c-0.3,0-0.5-0.2-0.5-0.5v-2
	C567.3,338.9,567.5,338.6,567.7,338.6z"/>
<path class="st3" d="M577.7,338.6h4c0.3,0,0.5,0.2,0.5,0.5v2c0,0.3-0.2,0.5-0.5,0.5h-4c-0.3,0-0.5-0.2-0.5-0.5v-2
	C577.3,338.9,577.5,338.6,577.7,338.6z"/>
<path class="st3" d="M587.7,338.6h4c0.3,0,0.5,0.2,0.5,0.5v2c0,0.3-0.2,0.5-0.5,0.5h-4c-0.3,0-0.5-0.2-0.5-0.5v-2
	C587.3,338.9,587.5,338.6,587.7,338.6z"/>
<path class="st3" d="M485.7,344.6h39c0.3,0,0.5,0.2,0.5,0.5v2c0,0.3-0.2,0.5-0.5,0.5h-39c-0.3,0-0.5-0.2-0.5-0.5v-2
	C485.3,344.9,485.5,344.6,485.7,344.6z"/>
<path class="st2" d="M630.4,577.7l-7.7-12.4l-1.5,7.1c-0.3,1.2-0.5,2.5-0.8,3.8c-2.2-1.9-4.5-3.6-6.8-5.3c-7-5.1-14-10.2-21-15.3
	l2.2,12.7c1.4,7.8,2.8,15.8,6.1,22.9c0.4,0.8,0.8,1.6,1.2,2.4h32.5c0.3-0.7,0.4-1.5,0.5-2.2c0,0,0-0.1,0-0.2
	C635.7,586.4,633,581.8,630.4,577.7z"/>
<path class="st2" d="M190.4,577.7l-7.7-12.4l-1.5,7.1c-0.3,1.2-0.5,2.5-0.8,3.8c-2.2-1.9-4.5-3.6-6.8-5.3c-7-5.1-14-10.2-21-15.3
	l2.2,12.7c1.4,7.8,2.8,15.8,6.1,22.9c0.4,0.8,0.8,1.6,1.2,2.4h32.5c0.3-0.7,0.4-1.5,0.5-2.2c0,0,0-0.1,0-0.2
	C195.7,586.4,193,581.8,190.4,577.7z"/>
<path class="st4" d="M808.9,595l-275.8,0.3c-0.7,0-1.2-0.5-1.2-1.2c0-0.7,0.5-1.2,1.2-1.2l275.8-0.3c0.7,0,1.2,0.5,1.2,1.2
	C810.1,594.4,809.6,595,808.9,595z"/>
<path class="st4" d="M276.9,595L1.2,595.3c-0.7,0-1.2-0.5-1.2-1.2c0-0.7,0.5-1.2,1.2-1.2l275.8-0.3c0.7,0,1.2,0.5,1.2,1.2
	C278.1,594.4,277.6,595,276.9,595z"/>
<path class="st1" d="M178.4,42.4c-4.8,1.4-9.2-2.6-12.5-6.4l1.2,1.4c-7.8,5.5-12.5,14.5-15.5,23.5c-3,9.1-4.7,18.6-8.1,27.5
	c-3.4,8.9-8.9,17.5-17.4,22c-11.3,6-25.2,3.2-37.2-1c-0.2-0.1-0.3-0.1-0.5-0.2c4.9-9.1,7.9-19.1,8.8-29.4c-5,9.7-12.1,18-20.9,24.5
	c-7.9-3.6-15.4-7.8-22.6-12.6C48.9,88.6,44,84.6,43.5,79c-0.6-5.5,3.6-10.6,8.4-13.2s10.5-3.6,15.8-5.2c5.3-1.6,10.7-4.2,13.5-9
	c6.4-11-4.4-26.6,2.5-37.4c3.4-5.3,10-7.4,16.1-8.9c9.3-2.2,18.8-3.8,28.4-4.8c8.4-0.8,17.1-1.1,25,1.6s15.2,9,16.9,17.2
	c4.7,2.4,9.6,5.2,12.1,9.8C184.8,33.8,183.4,40.9,178.4,42.4z"/>
<path class="st1" d="M171.3,40.5c-4.6,5.7-7.1,11.9-7.1,15.6c-9.5,17.3,4.1,32.2,21.4,41.7c6.9,3.8,14.9,5.2,22.7,4l0.7-3.1l1,2.8
	c0,0,11.3,37.3,15,39.5c-1.4-6.6-3-37.4-3.8-43.8c-1.1-8.8,2.7-21.9,5.4-29.9c1.7-4.9,2.6-10.1,2.6-15.3v-0.2l2.7,8.6l9.7-4.1
	c-1.8-10.4,0-22.1-21.7-21.1c-11.7-8.1-22-9.3-30.5-7c-1.1-1.7-7.4,1.5-9.2,0.6"/>
<path class="st4" d="M654,82.7v182.6c0,2.7-2.2,4.8-4.8,4.8H553c-10.6-9.9-19.4-21.6-25.8-34.7c-0.4-0.8-0.8-1.7-1.2-2.5
	c-5.8-12.6-9.3-26.2-10.4-40c-0.1-0.9-0.1-1.7-0.2-2.6c-0.1-2.2-0.2-4.4-0.2-6.7c0-14.9,2.8-29.7,8.3-43.5c0.3-0.9,0.7-1.7,1-2.6
	c11.1-26,31-47.2,56.3-59.7h68.3C651.8,77.9,654,80,654,82.7z"/>
<path class="st5" d="M635.5,103H380.2c-0.6,0-1-0.5-1-1c0-0.5,0.4-1,1-1h255.3c0.6,0,1,0.5,1,1C636.5,102.6,636,103,635.5,103z"/>
<ellipse class="st3" cx="397.5" cy="89.7" rx="6" ry="6.1"/>
<ellipse class="st3" cx="418.1" cy="89.7" rx="6" ry="6.1"/>
<ellipse class="st3" cx="438.6" cy="89.7" rx="6" ry="6.1"/>
<path class="st3" d="M623.1,85.2h-14.6c-0.6,0-1.1,0.5-1.1,1.1c0,0.6,0.5,1.1,1.1,1.1h14.6c0.6,0,1.1-0.5,1.1-1.1
	C624.2,85.6,623.7,85.2,623.1,85.2z"/>
<path class="st3" d="M623.1,89.3h-14.6c-0.6,0-1.1,0.5-1.1,1.1c0,0.6,0.5,1.1,1.1,1.1h14.6c0.6,0,1.1-0.5,1.1-1.1
	C624.2,89.8,623.7,89.3,623.1,89.3z"/>
<path class="st3" d="M623.1,93.4h-14.6c-0.6,0-1.1,0.5-1.1,1.1c0,0.6,0.5,1.1,1.1,1.1h14.6c0.6,0,1.1-0.5,1.1-1.1
	C624.2,93.9,623.7,93.5,623.1,93.4z"/>
<path class="st4" d="M424.5,162.3h31.9c2.4,0,4.3,1.9,4.3,4.3v0c0,2.4-1.9,4.3-4.3,4.3h-31.9c-2.4,0-4.3-1.9-4.3-4.3v0
	C420.2,164.3,422.1,162.3,424.5,162.3z"/>
<path class="st6" d="M403.9,179.7H477c2.4,0,4.3,1.9,4.3,4.3v0c0,2.4-1.9,4.3-4.3,4.3h-73.1c-2.4,0-4.3-1.9-4.3-4.3v0
	C399.6,181.6,401.5,179.7,403.9,179.7z"/>
<path class="st6" d="M403.9,197.1H477c2.4,0,4.3,1.9,4.3,4.3v0c0,2.4-1.9,4.3-4.3,4.3h-73.1c-2.4,0-4.3-1.9-4.3-4.3v0
	C399.6,199,401.5,197.1,403.9,197.1z"/>
<path class="st4" d="M406.3,259.6c0,3.6-0.6,7.1-1.9,10.5h-28c-2.7,0-4.8-2.2-4.8-4.8V230c1.6-0.3,3.2-0.4,4.7-0.4
	C392.8,229.6,406.3,243.1,406.3,259.6C406.3,259.6,406.3,259.6,406.3,259.6z"/>
<path class="st7" d="M654.3,140.1v-2.6h-42.9v-29.7h-2.6v29.7h-49.2v-29.7h-2.5v29.7h-32.5c-0.4,0.9-0.7,1.7-1,2.6h33.5v50.2h-41.6
	c0,0.9,0.1,1.7,0.2,2.6h41.5v40h-31c0.4,0.9,0.8,1.7,1.2,2.5h29.8v33.6h2.5v-33.6h49.2v33.6h2.6v-33.6h42.9v-2.5h-42.9v-40h42.9
	v-2.6h-42.9v-50.2H654.3z M608.8,232.9h-49.2v-40h49.2V232.9z M608.8,190.3h-49.2v-50.2h49.2V190.3z"/>
<path class="st1" d="M619.7,251.2c-1.5,0.1-2.7-1.1-2.8-2.5c0-0.8,0.3-1.6,0.9-2.1l0.2-0.7c0-0.1,0-0.1-0.1-0.2
	c-1.5-3.6-5.8-5.4-9.4-3.8c-1.7,0.7-3.1,2.1-3.8,3.9c-2.2,5.2-4.9,10.4-5.6,16c-0.3,2.4-0.2,4.9,0.4,7.3
	c-5.1-11.1-7.7-23.1-7.7-35.4c0-3.1,0.2-6.1,0.5-9.2c0.3-2.5,0.7-5,1.2-7.4c2.7-13.3,8.6-25.8,17.1-36.5c4.1-2.2,7.4-5.7,9.5-9.9
	c0.8-1.5,1.3-3.1,1.6-4.8c-0.5,0.1-0.9,0.1-1.4,0.1c-0.1,0-0.3,0-0.4,0l-0.1,0c-1.5,0.1-2.7-1.1-2.8-2.5c0-0.6,0.2-1.3,0.6-1.8
	c0.2-0.2,0.4-0.5,0.6-0.7c0.3-0.4,0.6-0.8,0.9-1.1c0,0,0.1-0.1,0.1-0.1c0.3-0.4,0.7-0.9,1-1.3c-0.6-1-1.5-1.8-2.5-2.4
	c-3.5-2.1-8.3-0.6-10.9,2.5c-2.5,3.2-3,7.6-2.1,11.6c0.9,3.4,2.3,6.6,4.2,9.5c-0.2,0.2-0.4,0.5-0.6,0.7c-3.5,4.5-6.5,9.3-9,14.3
	c0.6-5.7-0.1-11.4-2.2-16.7c-2.1-5-5.9-9.1-9.3-13.4c-4.1-5.2-12.5-2.9-13.2,3.6c0,0.1,0,0.1,0,0.2c0.5,0.3,1,0.6,1.5,0.9
	c1.7,1.1,2.1,3.4,1,5c-0.6,0.8-1.5,1.4-2.5,1.6l-0.1,0c0.2,1.8,0.5,3.6,1,5.4c2.7,10,9.4,18.4,18.5,23.3c0.3,0.2,0.6,0.3,0.9,0.4
	c-2.6,7.2-4.2,14.8-4.8,22.4c-0.3,4.5-0.3,9,0.1,13.5l0-0.2c-1-5-3.6-9.5-7.6-12.8c-5.8-4.8-14.1-6.5-20.3-10.4
	c-1.9-1.2-4.5-0.7-5.7,1.3c-0.5,0.8-0.8,1.8-0.6,2.8c0,0.1,0,0.1,0,0.2c0.9,0.4,1.8,0.8,2.7,1.3c0.5,0.3,1,0.6,1.5,0.9
	c1.7,1.1,2.1,3.4,1,5c-0.6,0.8-1.5,1.4-2.5,1.6l-0.1,0c-0.1,0-0.1,0-0.2,0c1.6,3.8,3.8,7.3,6.6,10.4c7,7.5,16.7,11.8,27,11.8h0
	c1.4,6,3.4,11.8,5.9,17.3h21.2c0.1-0.2,0.1-0.5,0.2-0.7c-2,0.1-3.9,0-5.9-0.3c1.6-1.9,3.1-3.9,4.7-5.8c0,0,0.1-0.1,0.1-0.1
	c0.8-1,1.6-2,2.4-3l0,0C620.8,257.1,620.4,254.1,619.7,251.2L619.7,251.2z M595.4,203.4L595.4,203.4L595.4,203.4L595.4,203.4z
	 M590.7,245.7l-0.2-0.4c0-0.3,0-0.6,0-0.9c0-0.1,0-0.2,0-0.3C590.6,244.7,590.6,245.2,590.7,245.7L590.7,245.7z"/>
</svg>
